<?xml version="1.0" encoding="UTF-8" standalone="no"?>
<svg width="294px" height="295px" viewBox="0 0 294 295" version="1.1" xmlns="http://www.w3.org/2000/svg" xmlns:xlink="http://www.w3.org/1999/xlink">
    <!-- Generator: Sketch 39.1 (31720) - http://www.bohemiancoding.com/sketch -->
    <title>Fill 14</title>
    <desc>Created with Sketch.</desc>
    <defs></defs>
    <g id="Page-1" stroke="none" stroke-width="1" fill="none" fill-rule="evenodd">
        <g id="Group-63-Copy-2" transform="translate(-617.000000, -719.000000)" fill="#FFFFFF">
            <path d="M831.308056,851.162624 L776.559613,814.430989 L776.559613,755.339585 L875.505728,821.509729 L831.308056,851.162624 Z M854.020309,866.40395 L885.617212,845.20346 L885.617212,887.60047 L854.020309,866.40395 Z M776.559613,918.376912 L831.308056,881.645276 L875.505728,911.298171 L776.559613,977.468315 L776.559613,918.376912 Z M696.558185,881.645276 L751.306627,918.376912 L751.306627,977.468315 L652.36447,911.298171 L696.558185,881.645276 Z M673.845932,866.40395 L642.252986,887.60047 L642.252986,845.20346 L673.845932,866.40395 Z M751.306627,814.430989 L696.558185,851.162624 L652.36447,821.509729 L751.306627,755.339585 L751.306627,814.430989 Z M763.935099,896.370486 L719.270438,866.40395 L763.935099,836.433445 L808.59976,866.40395 L763.935099,896.370486 Z M910.656492,819.290427 C910.589214,818.929145 910.529851,818.575803 910.43487,818.226432 C910.375507,818.016015 910.304272,817.817509 910.236994,817.611062 C910.138056,817.301392 910.039117,816.991722 909.912477,816.686022 C909.825411,816.479575 909.726473,816.273129 909.631492,816.070652 C909.496936,815.784803 909.358423,815.502923 909.200121,815.228985 C909.085353,815.026508 908.96267,814.835942 908.839986,814.641405 C908.669813,814.379377 908.495682,814.121319 908.30572,813.8712 C908.167207,813.688574 908.024736,813.505948 907.87435,813.327293 C907.676473,813.089085 907.462767,812.862788 907.245103,812.64046 C907.078886,812.469745 906.91267,812.302999 906.742497,812.144194 C906.51296,811.937747 906.271551,811.739241 906.026184,811.544705 C905.836223,811.39781 905.650219,811.246945 905.452342,811.111961 C905.385065,811.060349 905.317787,811.000797 905.246551,810.953155 L770.935966,721.128982 C766.697454,718.290339 761.168787,718.290339 756.930275,721.128982 L622.623647,810.953155 C622.548454,811.000797 622.485134,811.060349 622.413898,811.111961 C622.216022,811.246945 622.030018,811.39781 621.840057,811.544705 C621.598648,811.739241 621.353281,811.937747 621.127702,812.144194 C620.95357,812.302999 620.787354,812.469745 620.625096,812.64046 C620.403474,812.862788 620.193725,813.089085 619.991891,813.327293 C619.841505,813.505948 619.699034,813.688574 619.560521,813.8712 C619.370559,814.121319 619.196428,814.379377 619.026254,814.641405 C618.903571,814.835942 618.780888,815.026508 618.670077,815.228985 C618.507818,815.502923 618.369305,815.784803 618.238706,816.070652 C618.143726,816.273129 618.04083,816.479575 617.957722,816.686022 C617.835038,816.991722 617.728185,817.301392 617.629247,817.611062 C617.561969,817.817509 617.490733,818.016015 617.435328,818.226432 C617.344305,818.575803 617.277027,818.929145 617.213707,819.290427 C617.182046,819.473053 617.138513,819.651709 617.110811,819.834334 C617.039575,820.382212 617,820.93406 617,821.489878 L617,911.314052 C617,911.87384 617.039575,912.421718 617.110811,912.969596 C617.138513,913.156192 617.182046,913.334848 617.213707,913.517474 C617.277027,913.870815 617.344305,914.228127 617.435328,914.577498 C617.490733,914.787915 617.561969,914.990392 617.629247,915.192868 C617.728185,915.506508 617.835038,915.816178 617.957722,916.121878 C618.04083,916.332295 618.143726,916.530802 618.238706,916.733278 C618.369305,917.019128 618.507818,917.301007 618.670077,917.578916 C618.780888,917.777422 618.903571,917.971959 619.026254,918.158555 C619.196428,918.424553 619.370559,918.678642 619.560521,918.93273 C619.699034,919.123296 619.841505,919.301952 619.991891,919.480608 C620.193725,919.714845 620.403474,919.945113 620.625096,920.16347 C620.787354,920.330215 620.95357,920.500931 621.127702,920.655766 C621.353281,920.866183 621.598648,921.068659 621.840057,921.263196 C622.030018,921.410091 622.216022,921.556985 622.413898,921.69594 C622.485134,921.747552 622.548454,921.803133 622.623647,921.850775 L756.930275,1011.67495 C759.05151,1013.09625 761.489347,1013.80691 763.935099,1013.80691 C766.376894,1013.80691 768.818689,1013.09625 770.935966,1011.67495 L905.246551,921.850775 C905.317787,921.803133 905.385065,921.747552 905.452342,921.69594 C905.650219,921.556985 905.836223,921.410091 906.026184,921.263196 C906.271551,921.068659 906.51296,920.866183 906.742497,920.655766 C906.91267,920.500931 907.078886,920.330215 907.245103,920.16347 C907.462767,919.945113 907.676473,919.714845 907.87435,919.480608 C908.024736,919.301952 908.167207,919.123296 908.30572,918.93273 C908.495682,918.678642 908.669813,918.424553 908.839986,918.158555 C908.96267,917.971959 909.085353,917.777422 909.200121,917.578916 C909.358423,917.301007 909.496936,917.019128 909.631492,916.733278 C909.726473,916.530802 909.825411,916.332295 909.912477,916.121878 C910.039117,915.816178 910.138056,915.506508 910.236994,915.192868 C910.304272,914.990392 910.375507,914.787915 910.43487,914.577498 C910.529851,914.228127 910.589214,913.870815 910.656492,913.517474 C910.688152,913.334848 910.731685,913.156192 910.75543,912.969596 C910.826665,912.421718 910.870198,911.87384 910.870198,911.314052 L910.870198,821.489878 C910.870198,820.93406 910.826665,820.382212 910.75543,819.834334 C910.731685,819.651709 910.688152,819.473053 910.656492,819.290427 L910.656492,819.290427 Z" id="Fill-14"></path>
        </g>
    </g>
</svg>