<?xml version="1.0" encoding="UTF-8" standalone="no"?>
<svg width="253px" height="47px" viewBox="0 0 253 47" version="1.1" xmlns="http://www.w3.org/2000/svg" xmlns:xlink="http://www.w3.org/1999/xlink">
    <!-- Generator: Sketch 39.1 (31720) - http://www.bohemiancoding.com/sketch -->
    <title>Group 81</title>
    <desc>Created with Sketch.</desc>
    <defs></defs>
    <g id="Page-1" stroke="none" stroke-width="1" fill="none" fill-rule="evenodd">
        <g id="Group-49" transform="translate(-513.000000, -294.000000)" fill="#FFFFFF">
            <g id="Group-81" transform="translate(513.000000, 294.000000)">
                <path d="M16.051192,11.8267549 C18.8870027,11.8267549 21.4876216,12.8653044 23.5054808,14.5860444 L26.2510221,11.2660503 C23.4901289,8.91109105 19.9321629,7.49001643 16.051192,7.49001643 C7.29567257,7.49001643 0.17298568,14.7162525 0.17298568,23.5990591 C0.17298568,32.4812428 7.29567257,39.7074788 16.051192,39.7074788 C19.9321629,39.7074788 23.4901289,38.2857812 26.2510221,35.931445 L23.5054808,32.6108278 C21.4876216,34.3309449 18.8870027,35.3701174 16.051192,35.3701174 C9.65311675,35.3701174 4.44758034,30.0895262 4.44758034,23.5990591 C4.44758034,17.1079691 9.65311675,11.8267549 16.051192,11.8267549" id="Fill-2"></path>
                <path d="M103.947629,34.4417152 L97.5354301,34.4417152 L97.5354301,12.7561539 L103.947629,12.7561539 C109.840933,12.7561539 114.635037,17.6205777 114.635037,23.5989345 C114.635037,29.5772914 109.840933,34.4417152 103.947629,34.4417152 M103.947629,8.41941543 L95.3978257,8.41941543 C94.2175684,8.41941543 93.2608354,9.39068037 93.2608354,10.5874732 L93.2608354,36.6097729 C93.2608354,37.8071887 94.2175684,38.7784536 95.3978257,38.7784536 L103.947629,38.7784536 C112.198377,38.7784536 118.909632,31.969008 118.909632,23.5989345 C118.909632,15.2288611 112.198377,8.41941543 103.947629,8.41941543" id="Fill-4"></path>
                <path d="M130.483706,10.5877224 L130.483706,36.6100221 C130.483706,37.8074379 131.441053,38.7787028 132.620696,38.7787028 L150.433247,38.7787028 L150.433247,34.4419644 L134.758915,34.4419644 L134.758915,25.7672415 L144.733378,25.7672415 L144.733378,21.430503 L134.758915,21.430503 L134.758915,12.7564031 L150.433247,12.7564031 L150.433247,8.41966463 L132.620696,8.41966463 C131.441053,8.41966463 130.483706,9.39030657 130.483706,10.5877224" id="Fill-6"></path>
                <path d="M195.184956,10.5877224 L195.184956,36.6100221 C195.184956,37.8074379 196.142303,38.7787028 197.321946,38.7787028 L215.133883,38.7787028 L215.133883,34.4419644 L199.45955,34.4419644 L199.45955,25.7672415 L209.434628,25.7672415 L209.434628,21.430503 L199.45955,21.430503 L199.45955,12.7564031 L215.133883,12.7564031 L215.133883,8.41966463 L197.321946,8.41966463 C196.142303,8.41966463 195.184956,9.39030657 195.184956,10.5877224" id="Fill-8"></path>
                <path d="M174.843019,21.4303784 L167.717876,21.4303784 L167.717876,12.7562785 L174.843019,12.7562785 C177.200463,12.7562785 179.117614,14.7019234 179.117614,17.0936399 C179.117614,19.4847335 177.200463,21.4303784 174.843019,21.4303784 M174.843019,8.41954003 L165.580271,8.41954003 C164.400014,8.41954003 163.443281,9.39018197 163.443281,10.5875978 L163.443281,38.7785782 L167.717876,38.7785782 L167.717876,25.7671169 L174.843019,25.7671169 C179.557293,25.7671169 183.392822,21.875827 183.392822,17.0936399 C183.392822,12.3102068 179.557293,8.41954003 174.843019,8.41954003" id="Fill-10"></path>
                <path d="M248.552113,8.41941543 L248.552113,30.6208249 L230.957559,9.19941781 C230.38094,8.49729107 229.433418,8.23749795 228.587219,8.54900049 C227.74102,8.85988003 227.177297,9.6747707 227.177297,10.5874732 L227.177297,38.7784536 L231.452506,38.7784536 L231.452506,16.5776671 L249.047673,37.9984513 C249.461562,38.5024624 250.067656,38.7784536 250.689717,38.7784536 C250.933506,38.7784536 251.179137,38.7373353 251.417399,38.6494916 C252.263598,38.337989 252.827321,37.5230984 252.827321,36.6103959 L252.827321,8.41941543 L248.552113,8.41941543 Z" id="Fill-12"></path>
                <path d="M68.8054993,21.2074049 L60.3103488,15.4433618 L60.3103488,6.17055395 L75.6635187,16.5541798 L68.8054993,21.2074049 Z M72.329691,23.5991214 L77.2324871,20.2722742 L77.2324871,26.9253456 L72.329691,23.5991214 Z M60.3103488,31.7548811 L68.8054993,25.990838 L75.6635187,30.644063 L60.3103488,41.0276889 L60.3103488,31.7548811 Z M47.8967687,25.990838 L56.3919192,31.7548811 L56.3919192,41.0276889 L41.0393633,30.644063 L47.8967687,25.990838 Z M44.3725769,23.5991214 L39.4703949,26.9253456 L39.4703949,20.2722742 L44.3725769,23.5991214 Z M56.3919192,15.4433618 L47.8967687,21.2074049 L41.0393633,16.5541798 L56.3919192,6.17055395 L56.3919192,15.4433618 Z M58.351441,28.3015639 L51.4209604,23.5991214 L58.351441,18.896056 L65.2819216,23.5991214 L58.351441,28.3015639 Z M81.1177566,16.20592 C81.1073172,16.1492265 81.0981061,16.0937791 81.0833682,16.0389546 C81.074157,16.0059354 81.0631036,15.9747851 81.0526643,15.9423888 C81.0373124,15.8937944 81.0219604,15.8452 81.00231,15.7972287 C80.9888002,15.7648324 80.9734483,15.7324361 80.9587104,15.7006629 C80.9378318,15.6558065 80.9163391,15.6115731 80.891776,15.5685858 C80.8739677,15.5368125 80.8549313,15.5069083 80.8358949,15.476381 C80.8094896,15.4352627 80.7824701,15.3947674 80.7529944,15.355518 C80.7315017,15.3268598 80.7093949,15.2982016 80.68606,15.2701663 C80.6553561,15.232786 80.6221959,15.1972747 80.5884216,15.1623865 C80.5626303,15.1355972 80.5368391,15.109431 80.5104337,15.0845108 C80.4748172,15.0521146 80.4373585,15.0209643 80.3992857,14.9904371 C80.36981,14.9673859 80.3409483,14.9437117 80.3102444,14.9225295 C80.2998051,14.9144304 80.2893658,14.9050854 80.2783124,14.8976093 L59.4377444,0.802119058 C58.7800672,0.356670416 57.9222007,0.356670416 57.2645235,0.802119058 L36.4245697,14.8976093 C36.4129022,14.9050854 36.4030769,14.9144304 36.3920235,14.9225295 C36.3613197,14.9437117 36.332458,14.9673859 36.3029823,14.9904371 C36.2655235,15.0209643 36.2274507,15.0521146 36.1924483,15.0845108 C36.1654289,15.109431 36.1396376,15.1355972 36.1144604,15.1623865 C36.0800721,15.1972747 36.047526,15.232786 36.016208,15.2701663 C35.9928731,15.2982016 35.9707663,15.3268598 35.9492735,15.355518 C35.9197978,15.3947674 35.8927784,15.4352627 35.8663731,15.476381 C35.8473367,15.5069083 35.8283002,15.5368125 35.8111061,15.5685858 C35.7859289,15.6115731 35.7644362,15.6558065 35.7441716,15.7006629 C35.7294337,15.7324361 35.7134677,15.7648324 35.7005721,15.7972287 C35.6815357,15.8452 35.6649556,15.8937944 35.6496036,15.9423888 C35.6391643,15.9747851 35.6281109,16.0059354 35.6195138,16.0389546 C35.60539,16.0937791 35.5949507,16.1492265 35.5851255,16.20592 C35.5802129,16.2345782 35.573458,16.2626135 35.5691595,16.2912717 C35.5581061,16.3772464 35.5519653,16.4638441 35.5519653,16.5510648 L35.5519653,30.6465551 C35.5519653,30.7343988 35.5581061,30.8203735 35.5691595,30.9063482 C35.573458,30.9356294 35.5802129,30.9636646 35.5851255,30.9923229 C35.5949507,31.0477703 35.60539,31.1038408 35.6195138,31.1586652 C35.6281109,31.1916845 35.6391643,31.2234578 35.6496036,31.255231 C35.6649556,31.3044484 35.6815357,31.3530428 35.7005721,31.4010142 C35.7134677,31.4340335 35.7294337,31.4651837 35.7441716,31.496957 C35.7644362,31.5418134 35.7859289,31.5860467 35.8111061,31.6296571 C35.8283002,31.6608073 35.8473367,31.6913346 35.8663731,31.7206158 C35.8927784,31.7623572 35.9197978,31.8022295 35.9492735,31.8421018 C35.9707663,31.8720061 35.9928731,31.9000413 36.016208,31.9280765 C36.047526,31.9648338 36.0800721,32.0009681 36.1144604,32.0352334 C36.1396376,32.0613996 36.1654289,32.0881888 36.1924483,32.112486 C36.2274507,32.1455053 36.2655235,32.1772786 36.3029823,32.2078058 C36.332458,32.230857 36.3613197,32.2539082 36.3920235,32.2757134 C36.4030769,32.2838124 36.4129022,32.2925345 36.4245697,32.3000106 L57.2645235,46.3955008 C57.5936692,46.6185366 57.971941,46.7300545 58.351441,46.7300545 C58.7303269,46.7300545 59.1092129,46.6185366 59.4377444,46.3955008 L80.2783124,32.3000106 C80.2893658,32.2925345 80.2998051,32.2838124 80.3102444,32.2757134 C80.3409483,32.2539082 80.36981,32.230857 80.3992857,32.2078058 C80.4373585,32.1772786 80.4748172,32.1455053 80.5104337,32.112486 C80.5368391,32.0881888 80.5626303,32.0613996 80.5884216,32.0352334 C80.6221959,32.0009681 80.6553561,31.9648338 80.68606,31.9280765 C80.7093949,31.9000413 80.7315017,31.8720061 80.7529944,31.8421018 C80.7824701,31.8022295 80.8094896,31.7623572 80.8358949,31.7206158 C80.8549313,31.6913346 80.8739677,31.6608073 80.891776,31.6296571 C80.9163391,31.5860467 80.9378318,31.5418134 80.9587104,31.496957 C80.9734483,31.4651837 80.9888002,31.4340335 81.00231,31.4010142 C81.0219604,31.3530428 81.0373124,31.3044484 81.0526643,31.255231 C81.0631036,31.2234578 81.074157,31.1916845 81.0833682,31.1586652 C81.0981061,31.1038408 81.1073172,31.0477703 81.1177566,30.9923229 C81.1226692,30.9636646 81.129424,30.9356294 81.1331085,30.9063482 C81.1441619,30.8203735 81.1509167,30.7343988 81.1509167,30.6465551 L81.1509167,16.5510648 C81.1509167,16.4638441 81.1441619,16.3772464 81.1331085,16.2912717 C81.129424,16.2626135 81.1226692,16.2345782 81.1177566,16.20592 L81.1177566,16.20592 Z" id="Fill-14"></path>
            </g>
        </g>
    </g>
</svg>