<?xml version="1.0" encoding="UTF-8" standalone="no"?>
<svg width="32px" height="32px" viewBox="0 0 32 32" version="1.1" xmlns="http://www.w3.org/2000/svg" xmlns:xlink="http://www.w3.org/1999/xlink">
    <!-- Generator: Sketch 39.1 (31720) - http://www.bohemiancoding.com/sketch -->
    <title>Group 186</title>
    <desc>Created with Sketch.</desc>
    <defs></defs>
    <g id="Page-1" stroke="none" stroke-width="1" fill="none" fill-rule="evenodd">
        <g id="Group-173" transform="translate(-15.000000, -18.000000)">
            <g id="Group-186" transform="translate(15.000000, 18.000000)">
                <rect id="Rectangle-27" fill="#FFFFFF" x="0" y="0" width="32" height="32"></rect>
                <path d="M20.0122524,14.9427383 L16.6880631,12.7352325 L16.6880631,9.18394435 L22.6958252,13.1606521 L20.0122524,14.9427383 Z M21.391284,15.8587149 L23.3097694,14.5846032 L23.3097694,17.132588 L21.391284,15.8587149 Z M16.6880631,18.9821973 L20.0122524,16.7746914 L22.6958252,18.5567776 L16.6880631,22.5334854 L16.6880631,18.9821973 Z M11.8305752,16.7746914 L15.1547646,18.9821973 L15.1547646,22.5334854 L9.14724272,18.5567776 L11.8305752,16.7746914 Z M10.4515437,15.8587149 L8.53329854,17.132588 L8.53329854,14.5846032 L10.4515437,15.8587149 Z M15.1547646,12.7352325 L11.8305752,14.9427383 L9.14724272,13.1606521 L15.1547646,9.18394435 L15.1547646,12.7352325 Z M15.921534,17.6596503 L13.2096068,15.8587149 L15.921534,14.0575409 L18.6334612,15.8587149 L15.921534,17.6596503 Z M24.8300922,13.027276 C24.8260073,13.0055636 24.8224029,12.9843284 24.8166359,12.9633318 C24.8130316,12.9506862 24.8087063,12.9387563 24.8046214,12.9263492 C24.7986141,12.9077386 24.7926068,12.889128 24.7849175,12.8707559 C24.7796311,12.8583489 24.7736238,12.8459418 24.7678568,12.8337733 C24.7596869,12.8165943 24.7512767,12.7996538 24.741665,12.7831906 C24.7346966,12.7710221 24.7272476,12.7595694 24.7197985,12.7478781 C24.709466,12.7321307 24.6988932,12.7166218 24.6873592,12.7015902 C24.678949,12.6906147 24.6702985,12.6796392 24.6611675,12.6689023 C24.6491529,12.6545864 24.6361772,12.6409864 24.6229612,12.6276249 C24.6128689,12.6173652 24.6027767,12.6073441 24.5924442,12.5978002 C24.5785073,12.5853931 24.5638495,12.5734632 24.5489515,12.5617719 C24.5374175,12.5529438 24.5261238,12.5438771 24.5141092,12.5357648 C24.5100243,12.532663 24.5059393,12.529084 24.5016141,12.5262209 L16.3466092,7.12794801 C16.0892573,6.95735066 15.7535704,6.95735066 15.4962184,7.12794801 L7.34145388,12.5262209 C7.33688835,12.529084 7.33304369,12.532663 7.32871845,12.5357648 C7.31670388,12.5438771 7.30541019,12.5529438 7.29387621,12.5617719 C7.27921845,12.5734632 7.26432039,12.5853931 7.25062379,12.5978002 C7.24005097,12.6073441 7.22995874,12.6173652 7.2201068,12.6276249 C7.20665049,12.6409864 7.19391505,12.6545864 7.18166019,12.6689023 C7.17252913,12.6796392 7.16387864,12.6906147 7.15546845,12.7015902 C7.14393447,12.7166218 7.13336165,12.7321307 7.12302913,12.7478781 C7.1155801,12.7595694 7.10813107,12.7710221 7.10140291,12.7831906 C7.09155097,12.7996538 7.08314078,12.8165943 7.07521117,12.8337733 C7.06944417,12.8459418 7.0631966,12.8583489 7.05815049,12.8707559 C7.05070146,12.889128 7.04421359,12.9077386 7.03820631,12.9263492 C7.03412136,12.9387563 7.02979612,12.9506862 7.02643204,12.9633318 C7.02090534,12.9843284 7.01682039,13.0055636 7.01297573,13.027276 C7.0110534,13.0382515 7.00841019,13.0489884 7.00672816,13.0599639 C7.00240291,13.0928904 7,13.1260555 7,13.1594592 L7,18.557732 C7,18.5913743 7.00240291,18.6243008 7.00672816,18.6572273 C7.00841019,18.6684413 7.0110534,18.6791782 7.01297573,18.6901537 C7.01682039,18.7113889 7.02090534,18.7328627 7.02643204,18.7538593 C7.02979612,18.766505 7.03412136,18.7786735 7.03820631,18.790842 C7.04421359,18.8096912 7.05070146,18.8283018 7.05815049,18.8466738 C7.0631966,18.8593195 7.06944417,18.8712494 7.07521117,18.8834179 C7.08314078,18.9005969 7.09155097,18.9175373 7.10140291,18.9342392 C7.10813107,18.9461691 7.1155801,18.9578603 7.12302913,18.9690744 C7.13336165,18.9850605 7.14393447,19.0003307 7.15546845,19.015601 C7.16387864,19.0270537 7.17252913,19.0377906 7.18166019,19.0485275 C7.19391505,19.0626047 7.20665049,19.0764434 7.2201068,19.0895663 C7.22995874,19.0995874 7.24005097,19.1098471 7.25062379,19.1191524 C7.26432039,19.1317981 7.27921845,19.1439665 7.29387621,19.1556578 C7.30541019,19.164486 7.31670388,19.1733141 7.32871845,19.181665 C7.33304369,19.1847668 7.33688835,19.1881071 7.34145388,19.1909703 L15.4962184,24.5892432 C15.6250146,24.6746611 15.773034,24.7173701 15.921534,24.7173701 C16.0697937,24.7173701 16.2180534,24.6746611 16.3466092,24.5892432 L24.5016141,19.1909703 C24.5059393,19.1881071 24.5100243,19.1847668 24.5141092,19.181665 C24.5261238,19.1733141 24.5374175,19.164486 24.5489515,19.1556578 C24.5638495,19.1439665 24.5785073,19.1317981 24.5924442,19.1191524 C24.6027767,19.1098471 24.6128689,19.0995874 24.6229612,19.0895663 C24.6361772,19.0764434 24.6491529,19.0626047 24.6611675,19.0485275 C24.6702985,19.0377906 24.678949,19.0270537 24.6873592,19.015601 C24.6988932,19.0003307 24.709466,18.9850605 24.7197985,18.9690744 C24.7272476,18.9578603 24.7346966,18.9461691 24.741665,18.9342392 C24.7512767,18.9175373 24.7596869,18.9005969 24.7678568,18.8834179 C24.7736238,18.8712494 24.7796311,18.8593195 24.7849175,18.8466738 C24.7926068,18.8283018 24.7986141,18.8096912 24.8046214,18.790842 C24.8087063,18.7786735 24.8130316,18.766505 24.8166359,18.7538593 C24.8224029,18.7328627 24.8260073,18.7113889 24.8300922,18.6901537 C24.8320146,18.6791782 24.8346578,18.6684413 24.8360995,18.6572273 C24.8404248,18.6243008 24.843068,18.5913743 24.843068,18.557732 L24.843068,13.1594592 C24.843068,13.1260555 24.8404248,13.0928904 24.8360995,13.0599639 C24.8346578,13.0489884 24.8320146,13.0382515 24.8300922,13.027276 L24.8300922,13.027276 Z" id="Fill-14" fill="#1F1E1E"></path>
            </g>
        </g>
    </g>
</svg>