<?xml version="1.0" encoding="UTF-8" standalone="no"?>
<svg width="13px" height="12px" viewBox="0 0 13 12" version="1.1" xmlns="http://www.w3.org/2000/svg" xmlns:xlink="http://www.w3.org/1999/xlink">
    <!-- Generator: Sketch 39.1 (31720) - http://www.bohemiancoding.com/sketch -->
    <title>Fill 14</title>
    <desc>Created with Sketch.</desc>
    <defs></defs>
    <g id="Page-1" stroke="none" stroke-width="1" fill="none" fill-rule="evenodd">
        <path d="M8.81321709,5.37962798 L6.56173893,3.8844811 L6.56173893,1.47918862 L10.6308048,4.17261847 L8.81321709,5.37962798 Z M9.74723713,6.0000202 L11.04663,5.13706254 L11.04663,6.86281626 L9.74723713,6.0000202 Z M6.56173893,8.1155593 L8.81321709,6.62041242 L10.6308048,7.82742193 L6.56173893,10.5208518 L6.56173893,8.1155593 Z M3.27175549,6.62041242 L5.52323365,8.1155593 L5.52323365,10.5208518 L1.45433055,7.82742193 L3.27175549,6.62041242 Z M2.33773545,6.0000202 L1.03850529,6.86281626 L1.03850529,5.13706254 L2.33773545,6.0000202 Z M5.52323365,3.8844811 L3.27175549,5.37962798 L1.45433055,4.17261847 L5.52323365,1.47918862 L5.52323365,3.8844811 Z M6.04256767,7.21979631 L4.20577552,6.0000202 L6.04256767,4.78008248 L7.87935981,6.0000202 L6.04256767,7.21979631 Z M12.0763469,4.08228264 C12.0735801,4.0675768 12.0711389,4.05319418 12.0672329,4.03897315 C12.0647916,4.03040821 12.0618621,4.02232809 12.0590954,4.01392475 C12.0550267,4.00131975 12.0509579,3.98871475 12.0457499,3.97627136 C12.0421694,3.96786802 12.0381007,3.95946469 12.0341947,3.95122296 C12.0286612,3.93958758 12.022965,3.9281138 12.016455,3.91696322 C12.0117353,3.90872149 12.00669,3.90096457 12.0016448,3.89304604 C11.9946465,3.88238027 11.9874856,3.8718761 11.9796736,3.86169514 C11.9739773,3.85426143 11.9681184,3.84682771 11.9619339,3.83955559 C11.9537964,3.82985944 11.9450079,3.82064809 11.9360567,3.81159835 C11.9292212,3.80464944 11.9223857,3.79786213 11.9153875,3.79139803 C11.905948,3.7829947 11.8960203,3.77491457 11.8859298,3.76699604 C11.8781178,3.76101675 11.8704686,3.75487585 11.8623311,3.74938137 C11.8595644,3.74728053 11.8567976,3.74485649 11.8538681,3.74291726 L6.33047173,0.0866593721 C6.1561669,-0.0288864574 5.92880569,-0.0288864574 5.75450085,0.0866593721 L0.231267201,3.74291726 C0.228174959,3.74485649 0.225570965,3.74728053 0.222641472,3.74938137 C0.214503991,3.75487585 0.206854759,3.76101675 0.199042778,3.76699604 C0.189115051,3.77491457 0.179024575,3.7829947 0.169747847,3.79139803 C0.162586864,3.79786213 0.155751381,3.80464944 0.149078646,3.81159835 C0.139964668,3.82064809 0.131338938,3.82985944 0.123038708,3.83955559 C0.116854223,3.84682771 0.110995237,3.85426143 0.105299,3.86169514 C0.0974870187,3.8718761 0.0903260357,3.88238027 0.0833278023,3.89304604 C0.0782825643,3.90096457 0.0732373263,3.90872149 0.0686803371,3.91696322 C0.0620076029,3.9281138 0.0563113664,3.93958758 0.0509406292,3.95122296 C0.0470346384,3.95946469 0.0428031485,3.96786802 0.0393854066,3.97627136 C0.0343401685,3.98871475 0.029945929,4.00131975 0.0258771886,4.01392475 C0.0231104452,4.02232809 0.0201809521,4.03040821 0.0179024575,4.03897315 C0.0141592164,4.05319418 0.011392473,4.0675768 0.00878847915,4.08228264 C0.00748648224,4.08971635 0.00569623649,4.09698847 0.00455698919,4.10442219 C0.00162749614,4.12672334 0,4.1491861 0,4.17181045 L0,7.82806834 C0,7.85085431 0.00162749614,7.87315546 0.00455698919,7.89545661 C0.00569623649,7.90305193 0.00748648224,7.91032405 0.00878847915,7.91775776 C0.011392473,7.93214039 0.0141592164,7.94668462 0.0179024575,7.96090565 C0.0201809521,7.96947058 0.0231104452,7.97771231 0.0258771886,7.98595404 C0.029945929,7.99872065 0.0343401685,8.01132565 0.0393854066,8.02376904 C0.0428031485,8.03233398 0.0470346384,8.04041411 0.0509406292,8.04865584 C0.0563113664,8.06029122 0.0620076029,8.071765 0.0686803371,8.08307718 C0.0732373263,8.09115731 0.0782825643,8.09907584 0.0833278023,8.10667116 C0.0903260357,8.11749853 0.0974870187,8.12784109 0.105299,8.13818365 C0.110995237,8.14594058 0.116854223,8.15321269 0.123038708,8.16048481 C0.131338938,8.17001936 0.139964668,8.17939231 0.149078646,8.18828045 C0.155751381,8.19506776 0.162586864,8.20201667 0.169747847,8.20831917 C0.179024575,8.2168841 0.189115051,8.22512583 0.199042778,8.23304436 C0.206854759,8.23902365 0.214503991,8.24500295 0.222641472,8.25065904 C0.225570965,8.25275987 0.228174959,8.2550223 0.231267201,8.25696154 L5.75450085,11.9132194 C5.84173464,11.9710731 5.9419884,12 6.04256767,12 C6.14298418,12 6.24340069,11.9710731 6.33047173,11.9132194 L11.8538681,8.25696154 C11.8567976,8.2550223 11.8595644,8.25275987 11.8623311,8.25065904 C11.8704686,8.24500295 11.8781178,8.23902365 11.8859298,8.23304436 C11.8960203,8.22512583 11.905948,8.2168841 11.9153875,8.20831917 C11.9223857,8.20201667 11.9292212,8.19506776 11.9360567,8.18828045 C11.9450079,8.17939231 11.9537964,8.17001936 11.9619339,8.16048481 C11.9681184,8.15321269 11.9739773,8.14594058 11.9796736,8.13818365 C11.9874856,8.12784109 11.9946465,8.11749853 12.0016448,8.10667116 C12.00669,8.09907584 12.0117353,8.09115731 12.016455,8.08307718 C12.022965,8.071765 12.0286612,8.06029122 12.0341947,8.04865584 C12.0381007,8.04041411 12.0421694,8.03233398 12.0457499,8.02376904 C12.0509579,8.01132565 12.0550267,7.99872065 12.0590954,7.98595404 C12.0618621,7.97771231 12.0647916,7.96947058 12.0672329,7.96090565 C12.0711389,7.94668462 12.0735801,7.93214039 12.0763469,7.91775776 C12.0776488,7.91032405 12.0794391,7.90305193 12.0804156,7.89545661 C12.0833451,7.87315546 12.0851353,7.85085431 12.0851353,7.82806834 L12.0851353,4.17181045 C12.0851353,4.1491861 12.0833451,4.12672334 12.0804156,4.10442219 C12.0794391,4.09698847 12.0776488,4.08971635 12.0763469,4.08228264 L12.0763469,4.08228264 Z" id="Fill-14" fill="#FFFFFF"></path>
    </g>
</svg>