<?xml version="1.0" encoding="UTF-8" standalone="no"?>
<svg width="13px" height="13px" viewBox="0 0 13 13" version="1.1" xmlns="http://www.w3.org/2000/svg" xmlns:xlink="http://www.w3.org/1999/xlink">
    <!-- Generator: Sketch 39.1 (31720) - http://www.bohemiancoding.com/sketch -->
    <title>Group 42</title>
    <desc>Created with Sketch.</desc>
    <defs></defs>
    <g id="Page-1" stroke="none" stroke-width="1" fill="none" fill-rule="evenodd">
        <g id="Group-42" fill="#FFFFFF">
            <path d="M13,5.95833333 L13,0.541666667 C13,0.242125 12.757875,0 12.4583333,0 L7.04166667,0 L7.04166667,5.95833333 L13,5.95833333 L13,5.95833333 Z" id="Shape"></path>
            <path d="M5.95833333,0 L0.541666667,0 C0.242125,0 0,0.242125 0,0.541666667 L0,5.95833333 L5.95833333,5.95833333 L5.95833333,0 L5.95833333,0 Z" id="Shape"></path>
            <path d="M0,7.04166667 L0,12.4583333 C0,12.757875 0.242125,13 0.541666667,13 L5.95833333,13 L5.95833333,7.04166667 L0,7.04166667 L0,7.04166667 Z" id="Shape"></path>
            <path d="M7.04166667,13 L12.4583333,13 C12.757875,13 13,12.757875 13,12.4583333 L13,7.04166667 L7.04166667,7.04166667 L7.04166667,13 L7.04166667,13 Z" id="Shape"></path>
        </g>
    </g>
</svg>