<?xml version="1.0" encoding="UTF-8" standalone="no"?>
<svg width="13px" height="13px" viewBox="0 0 13 13" version="1.1" xmlns="http://www.w3.org/2000/svg" xmlns:xlink="http://www.w3.org/1999/xlink">
    <!-- Generator: Sketch 39.1 (31720) - http://www.bohemiancoding.com/sketch -->
    <title>Group 63</title>
    <desc>Created with Sketch.</desc>
    <defs></defs>
    <g id="Page-1" stroke="none" stroke-width="1" fill="none" fill-rule="evenodd">
        <g id="Group-143" transform="translate(-68.000000, -6.000000)" stroke="#FFFEFE">
            <g id="Group-63" transform="translate(69.000000, 7.000000)">
                <g id="design-24px-outline_command">
                    <g id="Group" transform="translate(0.261905, 0.261905)">
                        <rect id="Rectangle-path" x="3.14285714" y="3.14285714" width="4.19047619" height="4.19047619"></rect>
                        <path d="M0,1.57142857 C0,0.680952381 0.680952381,0 1.57142857,0 C2.46190476,0 3.14285714,0.680952381 3.14285714,1.57142857 L3.14285714,3.14285714 L1.57142857,3.14285714 C0.680952381,3.14285714 0,2.46190476 0,1.57142857 L0,1.57142857 Z" id="Shape"></path>
                        <path d="M10.4761905,1.57142857 C10.4761905,0.680952381 9.7952381,0 8.9047619,0 C8.01428571,0 7.33333333,0.680952381 7.33333333,1.57142857 L7.33333333,3.14285714 L8.9047619,3.14285714 C9.7952381,3.14285714 10.4761905,2.46190476 10.4761905,1.57142857 L10.4761905,1.57142857 Z" id="Shape"></path>
                        <path d="M8.9047619,10.4761905 C8.01428571,10.4761905 7.33333333,9.7952381 7.33333333,8.9047619 L7.33333333,7.33333333 L8.9047619,7.33333333 C9.7952381,7.33333333 10.4761905,8.01428571 10.4761905,8.9047619 C10.4761905,9.7952381 9.7952381,10.4761905 8.9047619,10.4761905 Z" id="Shape"></path>
                        <path d="M0,8.9047619 C0,9.7952381 0.680952381,10.4761905 1.57142857,10.4761905 C2.46190476,10.4761905 3.14285714,9.7952381 3.14285714,8.9047619 L3.14285714,7.33333333 L1.57142857,7.33333333 C0.680952381,7.33333333 0,8.01428571 0,8.9047619 L0,8.9047619 Z" id="Shape"></path>
                    </g>
                </g>
            </g>
        </g>
    </g>
</svg>