<?xml version="1.0" encoding="UTF-8" standalone="no"?>
<svg width="14px" height="14px" viewBox="0 0 14 14" version="1.1" xmlns="http://www.w3.org/2000/svg" xmlns:xlink="http://www.w3.org/1999/xlink">
    <!-- Generator: Sketch 39.1 (31720) - http://www.bohemiancoding.com/sketch -->
    <title>Group 167</title>
    <desc>Created with Sketch.</desc>
    <defs></defs>
    <g id="Page-1" stroke="none" stroke-width="1" fill="none" fill-rule="evenodd">
        <g id="Group-167" fill="#FFFFFF">
            <path d="M13.4166667,0 L0.583333333,0 C0.233333333,0 0,0.233333333 0,0.583333333 L0,13.4166667 C0,13.7666667 0.233333333,14 0.583333333,14 L13.4166667,14 C13.7666667,14 14,13.7666667 14,13.4166667 L14,0.583333333 C14,0.233333333 13.7666667,0 13.4166667,0 L13.4166667,0 Z M9.91666667,7.58333333 L7.58333333,7.58333333 L7.58333333,9.91666667 C7.58333333,10.2666667 7.35,10.5 7,10.5 C6.65,10.5 6.41666667,10.2666667 6.41666667,9.91666667 L6.41666667,7.58333333 L4.08333333,7.58333333 C3.73333333,7.58333333 3.5,7.35 3.5,7 C3.5,6.65 3.73333333,6.41666667 4.08333333,6.41666667 L6.41666667,6.41666667 L6.41666667,4.08333333 C6.41666667,3.73333333 6.65,3.5 7,3.5 C7.35,3.5 7.58333333,3.73333333 7.58333333,4.08333333 L7.58333333,6.41666667 L9.91666667,6.41666667 C10.2666667,6.41666667 10.5,6.65 10.5,7 C10.5,7.35 10.2666667,7.58333333 9.91666667,7.58333333 L9.91666667,7.58333333 Z" id="Shape"></path>
        </g>
    </g>
</svg>