<?xml version="1.0" encoding="UTF-8" standalone="no"?>
<svg width="14px" height="14px" viewBox="0 0 14 14" version="1.1" xmlns="http://www.w3.org/2000/svg" xmlns:xlink="http://www.w3.org/1999/xlink">
    <!-- Generator: Sketch 39.1 (31720) - http://www.bohemiancoding.com/sketch -->
    <title>Group 168</title>
    <desc>Created with Sketch.</desc>
    <defs></defs>
    <g id="Page-1" stroke="none" stroke-width="1" fill="none" fill-rule="evenodd">
        <g id="Group-168" fill="#FFFFFF">
            <path d="M7,0 C3.15,0 0,3.15 0,7 C0,10.85 3.15,14 7,14 C10.85,14 14,10.85 14,7 C14,3.15 10.85,0 7,0 L7,0 Z M7,12.8333333 C5.54166667,12.8333333 4.2,12.3083333 3.20833333,11.375 L3.20833333,11.375 C4.2,9.74166667 3.55833333,8.75 3.09166667,8.34166667 C2.975,8.225 2.85833333,8.10833333 2.68333333,7.99166667 C2.33333333,7.7 2.1,7.525 2.1,7 C2.1,6.76666667 2.21666667,6.65 2.91666667,6.41666667 C3.38333333,6.24166667 3.96666667,6.06666667 4.31666667,5.6 C5.13333333,4.55 4.25833333,2.91666667 4.08333333,2.625 C3.96666667,2.45 3.85,2.275 3.73333333,2.15833333 C4.60833333,1.575 5.65833333,1.225 6.76666667,1.16666667 C7,1.45833333 7.29166667,1.75 7.58333333,1.98333333 C7.81666667,2.21666667 8.225,2.275 8.45833333,2.56666667 C8.575,2.74166667 8.51666667,2.975 8.51666667,3.20833333 C8.51666667,3.55833333 8.75,4.08333333 9.50833333,4.08333333 L9.625,4.08333333 C9.91666667,4.08333333 10.85,3.85 11.725,3.55833333 C12.425,4.55 12.8916667,5.71666667 12.8916667,7 C12.8333333,10.2083333 10.2083333,12.8333333 7,12.8333333 L7,12.8333333 Z" id="Shape"></path>
            <path d="M9.04166667,5.19166667 C8.10833333,5.19166667 7.175,5.6 6.70833333,6.3 C6.41666667,6.70833333 6.3,7.23333333 6.41666667,7.7 C6.70833333,8.63333333 6.76666667,9.21666667 6.53333333,9.85833333 C6.35833333,10.4416667 6.35833333,11.2583333 7.29166667,11.6083333 C7.46666667,11.6666667 7.64166667,11.725 7.875,11.725 C8.575,11.725 9.45,11.2583333 10.15,10.5 C11.0833333,9.56666667 11.6083333,8.45833333 11.55,7.46666667 C11.6666667,6.24166667 10.5,5.19166667 9.04166667,5.19166667 L9.04166667,5.19166667 Z" id="Shape"></path>
        </g>
    </g>
</svg>