<?xml version="1.0" encoding="UTF-8" standalone="no"?>
<svg width="16px" height="14px" viewBox="0 0 16 14" version="1.1" xmlns="http://www.w3.org/2000/svg" xmlns:xlink="http://www.w3.org/1999/xlink">
    <!-- Generator: Sketch 39.1 (31720) - http://www.bohemiancoding.com/sketch -->
    <title>Group 140</title>
    <desc>Created with Sketch.</desc>
    <defs></defs>
    <g id="Page-1" stroke="none" stroke-width="1" fill="none" fill-rule="evenodd">
        <g id="Group-173" transform="translate(-522.000000, -18.000000)" fill="#FFFFFF">
            <g id="Group-171" transform="translate(398.000000, 7.000000)">
                <g id="Group-141" transform="translate(97.000000, 11.000000)">
                    <g id="Group-140" transform="translate(27.940789, 0.000000)">
                        <path d="M3.07266746,0 L0.614533493,0 C0.275311005,0 0,0.275508021 0,0.614973262 L0,12.9144385 C0,13.2539037 0.275311005,13.5294118 0.614533493,13.5294118 L3.07266746,13.5294118 L3.07266746,0 L3.07266746,0 Z" id="Shape"></path>
                        <path d="M4.30173445,0 L4.30173445,13.5294118 L14.1342703,13.5294118 C14.4734928,13.5294118 14.7488038,13.2539037 14.7488038,12.9144385 L14.7488038,0.614973262 C14.7488038,0.275508021 14.4734928,0 14.1342703,0 L4.30173445,0 L4.30173445,0 Z M6.75986842,2.45989305 L8.6034689,2.45989305 L8.6034689,3.68983957 L6.75986842,3.68983957 L6.75986842,2.45989305 L6.75986842,2.45989305 Z M8.6034689,11.0695187 L6.75986842,11.0695187 L6.75986842,9.83957219 L8.6034689,9.83957219 L8.6034689,11.0695187 L8.6034689,11.0695187 Z M10.4470694,8.60962567 L7.98893541,8.60962567 L7.98893541,7.37967914 L10.4470694,7.37967914 L10.4470694,8.60962567 L10.4470694,8.60962567 Z M12.2906699,6.14973262 L8.6034689,6.14973262 L8.6034689,4.9197861 L12.2906699,4.9197861 L12.2906699,6.14973262 L12.2906699,6.14973262 Z" id="Shape"></path>
                    </g>
                </g>
            </g>
        </g>
    </g>
</svg>