<?xml version="1.0" encoding="UTF-8" standalone="no"?>
<svg width="15px" height="14px" viewBox="0 0 15 14" version="1.1" xmlns="http://www.w3.org/2000/svg" xmlns:xlink="http://www.w3.org/1999/xlink">
    <!-- Generator: Sketch 39.1 (31720) - http://www.bohemiancoding.com/sketch -->
    <title>Group 163</title>
    <desc>Created with Sketch.</desc>
    <defs></defs>
    <g id="Page-1" stroke="none" stroke-width="1" fill="none" fill-rule="evenodd">
        <g id="Group-163" fill="#FFFFFF">
            <path d="M7.30434783,0.394434783 L4.26086957,3.16156522 L4.26086957,1.82608696 L2.43478261,1.82608696 L2.43478261,4.82147826 L0.199043478,6.85391304 L1.01834783,7.75478261 L1.82608696,7.02069565 L1.82608696,13.3913043 C1.82608696,13.727913 2.09878261,14 2.43478261,14 L6.08695652,14 L6.08695652,10.3478261 L8.52173913,10.3478261 L8.52173913,14 L12.173913,14 C12.509913,14 12.7826087,13.727913 12.7826087,13.3913043 L12.7826087,7.02069565 L13.5903478,7.7553913 L14.4096522,6.85452174 L7.30434783,0.394434783 L7.30434783,0.394434783 Z M8.52173913,7.91304348 L6.08695652,7.91304348 L6.08695652,5.47826087 L8.52173913,5.47826087 L8.52173913,7.91304348 L8.52173913,7.91304348 Z" id="Shape"></path>
        </g>
    </g>
</svg>