<?xml version="1.0" encoding="UTF-8" standalone="no"?>
<svg width="12px" height="8px" viewBox="0 0 12 8" version="1.1" xmlns="http://www.w3.org/2000/svg" xmlns:xlink="http://www.w3.org/1999/xlink">
    <!-- Generator: Sketch 39.1 (31720) - http://www.bohemiancoding.com/sketch -->
    <title>ui-24px-glyph-2_menu-34</title>
    <desc>Created with Sketch.</desc>
    <defs></defs>
    <g id="Page-1" stroke="none" stroke-width="1" fill="none" fill-rule="evenodd">
        <g id="Group-16" transform="translate(-13.000000, 0.000000)" fill="#FFFFFF">
            <g id="ui-24px-glyph-2_menu-34" transform="translate(13.000000, 0.000000)">
                <g id="Group">
                    <path d="M11.5,4.5 L0.5,4.5 C0.2,4.5 0,4.3 0,4 C0,3.7 0.2,3.5 0.5,3.5 L11.5,3.5 C11.8,3.5 12,3.7 12,4 C12,4.3 11.8,4.5 11.5,4.5 L11.5,4.5 Z" id="Shape"></path>
                    <path d="M11.5,1 L0.5,1 C0.2,1 0,0.8 0,0.5 C0,0.2 0.2,0 0.5,0 L11.5,0 C11.8,0 12,0.2 12,0.5 C12,0.8 11.8,1 11.5,1 L11.5,1 Z" id="Shape"></path>
                    <path d="M11.5,8 L0.5,8 C0.2,8 0,7.8 0,7.5 C0,7.2 0.2,7 0.5,7 L11.5,7 C11.8,7 12,7.2 12,7.5 C12,7.8 11.8,8 11.5,8 L11.5,8 Z" id="Shape"></path>
                </g>
            </g>
        </g>
    </g>
</svg>