<?xml version="1.0" encoding="UTF-8" standalone="no"?>
<svg width="14px" height="15px" viewBox="0 0 14 15" version="1.1" xmlns="http://www.w3.org/2000/svg" xmlns:xlink="http://www.w3.org/1999/xlink">
    <!-- Generator: Sketch 39.1 (31720) - http://www.bohemiancoding.com/sketch -->
    <title>Group 27</title>
    <desc>Created with Sketch.</desc>
    <defs></defs>
    <g id="Page-1" stroke="none" stroke-width="1" fill="none" fill-rule="evenodd">
        <g id="Group-27" fill="#D9D8D8">
            <path d="M11.0869565,6.52173913 L11.0869565,4.56521739 C11.0869565,2.02173913 9.06521739,0 6.52173913,0 C3.97826087,0 1.95652174,2.02173913 1.95652174,4.56521739 L1.95652174,6.52173913 C1.95652174,8.67391304 0,9.19565217 0,10.4347826 C0,11.5434783 2.54347826,12.3913043 6.52173913,12.3913043 C10.5,12.3913043 13.0434783,11.5434783 13.0434783,10.4347826 C13.0434783,9.19565217 11.0869565,8.67391304 11.0869565,6.52173913 L11.0869565,6.52173913 Z" id="Shape"></path>
            <path d="M6.52173913,13.6956522 C5.67391304,13.6956522 4.95652174,13.6304348 4.23913043,13.5652174 C4.69565217,14.4130435 5.54347826,15 6.52173913,15 C7.5,15 8.41304348,14.4130435 8.80434783,13.5652174 C8.08695652,13.6304348 7.36956522,13.6956522 6.52173913,13.6956522 L6.52173913,13.6956522 Z" id="Shape"></path>
        </g>
    </g>
</svg>