<?xml version="1.0" encoding="UTF-8" standalone="no"?>
<svg width="14px" height="14px" viewBox="0 0 14 14" version="1.1" xmlns="http://www.w3.org/2000/svg" xmlns:xlink="http://www.w3.org/1999/xlink">
    <!-- Generator: Sketch 39.1 (31720) - http://www.bohemiancoding.com/sketch -->
    <title>Group 8</title>
    <desc>Created with Sketch.</desc>
    <defs></defs>
    <g id="Page-1" stroke="none" stroke-width="1" fill="none" fill-rule="evenodd">
        <g id="Group-8" transform="translate(0.011773, 0.000000)" fill="#FFFFFF">
            <path d="M13.5421175,5.97825758 L7.82983107,0.170176768 C7.60648067,-0.0569191919 7.24546416,-0.0569191919 7.02211376,0.170176768 L5.87965647,1.33179293 C5.65630607,1.55888889 5.65630607,1.9259596 5.87965647,2.15305556 L11.5919429,7.96113636 C11.7033325,8.07439394 11.8495671,8.13131313 11.9958016,8.13131313 C12.1420361,8.13131313 12.2882707,8.07439394 12.3996602,7.96113636 L13.5421175,6.7995202 C13.7654679,6.57242424 13.7654679,6.20535354 13.5421175,5.97825758 L13.5421175,5.97825758 Z" id="Shape"></path>
            <path d="M5.47922518,3.38901515 L2.08441333,4.68305556 C1.89076682,4.75681818 1.75195826,4.93106061 1.72054069,5.1389899 L0.200501255,12.9142677 L3.59874048,9.4590404 C3.49192072,9.23194444 3.42737188,8.98045455 3.42737188,8.71212121 C3.42737188,7.74972222 4.19453196,6.96969697 5.14105783,6.96969697 C6.08758369,6.96969697 6.85474377,7.74972222 6.85474377,8.71212121 C6.85474377,9.6745202 6.08758369,10.4545455 5.14105783,10.4545455 C4.87715019,10.4545455 4.62980819,10.3889141 4.40645779,10.280303 L1.00821856,13.7355303 L8.65525646,12.19 C8.85918509,12.1580556 9.03055368,12.0163384 9.10309972,11.8200253 L10.3763684,8.36770202 L5.47922518,3.38901515 L5.47922518,3.38901515 Z" id="Shape"></path>
        </g>
    </g>
</svg>