<?xml version="1.0" encoding="UTF-8" standalone="no"?>
<svg width="15px" height="15px" viewBox="0 0 15 15" version="1.1" xmlns="http://www.w3.org/2000/svg" xmlns:xlink="http://www.w3.org/1999/xlink">
    <!-- Generator: Sketch 39.1 (31720) - http://www.bohemiancoding.com/sketch -->
    <title>Group 8</title>
    <desc>Created with Sketch.</desc>
    <defs></defs>
    <g id="Page-1" stroke="none" stroke-width="1" fill="none" fill-rule="evenodd">
        <g id="Group-16" transform="translate(-11.000000, -81.000000)" fill="#FFFFFF">
            <g id="Group-8" transform="translate(11.000000, 81.000000)">
                <path d="M14.816875,6.433125 L8.566875,0.183125 C8.3225,-0.06125 7.9275,-0.06125 7.683125,0.183125 L6.433125,1.433125 C6.18875,1.6775 6.18875,2.0725 6.433125,2.316875 L12.683125,8.566875 C12.805,8.68875 12.965,8.75 13.125,8.75 C13.285,8.75 13.445,8.68875 13.566875,8.566875 L14.816875,7.316875 C15.06125,7.0725 15.06125,6.6775 14.816875,6.433125 L14.816875,6.433125 Z" id="Shape"></path>
                <path d="M5.995,3.646875 L2.280625,5.039375 C2.06875,5.11875 1.916875,5.30625 1.8825,5.53 L0.219375,13.896875 L3.9375,10.17875 C3.820625,9.934375 3.75,9.66375 3.75,9.375 C3.75,8.339375 4.589375,7.5 5.625,7.5 C6.660625,7.5 7.5,8.339375 7.5,9.375 C7.5,10.410625 6.660625,11.25 5.625,11.25 C5.33625,11.25 5.065625,11.179375 4.82125,11.0625 L1.103125,14.780625 L9.47,13.1175 C9.693125,13.083125 9.880625,12.930625 9.96,12.719375 L11.353125,9.004375 L5.995,3.646875 L5.995,3.646875 Z" id="Shape"></path>
            </g>
        </g>
    </g>
</svg>