<?xml version="1.0" encoding="UTF-8" standalone="no"?>
<svg width="10px" height="12px" viewBox="0 0 10 12" version="1.1" xmlns="http://www.w3.org/2000/svg" xmlns:xlink="http://www.w3.org/1999/xlink">
    <!-- Generator: Sketch 39.1 (31720) - http://www.bohemiancoding.com/sketch -->
    <title>shopping-24px-glyph_bag-20</title>
    <desc>Created with Sketch.</desc>
    <defs></defs>
    <g id="Page-1" stroke="none" stroke-width="1" fill="none" fill-rule="evenodd">
        <g id="shopping-24px-glyph_bag-20" fill="#FFFEFE">
            <path d="M9.5,2.5 L7.5,2.5 C7.5,1.1 6.4,0 5,0 C3.6,0 2.5,1.1 2.5,2.5 L0.5,2.5 C0.2,2.5 0,2.7 0,3 L0,11.5 C0,11.8 0.2,12 0.5,12 L9.5,12 C9.8,12 10,11.8 10,11.5 L10,3 C10,2.7 9.8,2.5 9.5,2.5 L9.5,2.5 Z M5,1 C5.85,1 6.5,1.65 6.5,2.5 L3.5,2.5 C3.5,1.65 4.15,1 5,1 L5,1 Z" id="Shape"></path>
        </g>
    </g>
</svg>