<?xml version="1.0" encoding="UTF-8" standalone="no"?>
<svg width="19px" height="12px" viewBox="0 0 19 12" version="1.1" xmlns="http://www.w3.org/2000/svg" xmlns:xlink="http://www.w3.org/1999/xlink">
    <!-- Generator: Sketch 39.1 (31720) - http://www.bohemiancoding.com/sketch -->
    <title>Group 181</title>
    <desc>Created with Sketch.</desc>
    <defs></defs>
    <g id="Page-1" stroke="none" stroke-width="1" fill="none" fill-rule="evenodd">
        <g id="Group-181" transform="translate(9.750000, 6.000000) scale(-1, 1) translate(-9.750000, -6.000000) " fill="#FFFFFF">
            <path d="M14.4,2.85 C14.1,2.55 13.65,2.55 13.35,2.85 C13.05,3.15 13.05,3.6 13.35,3.9 C14.55,5.1 14.55,6.975 13.35,8.175 C13.05,8.475 13.05,8.925 13.35,9.225 C13.5,9.375 13.725,9.45 13.875,9.45 C14.025,9.45 14.25,9.375 14.4,9.225 C16.2,7.425 16.2,4.575 14.4,2.85 L14.4,2.85 Z" id="Shape"></path>
            <path d="M16.575,0.675 C16.275,0.375 15.825,0.375 15.525,0.675 C15.225,0.975 15.225,1.425 15.525,1.725 C17.85,4.05 17.85,7.875 15.525,10.2 C15.225,10.5 15.225,10.95 15.525,11.25 C15.675,11.4 15.9,11.475 16.05,11.475 C16.2,11.475 16.425,11.4 16.575,11.25 C19.5,8.4 19.5,3.6 16.575,0.675 L16.575,0.675 Z" id="Shape"></path>
            <path d="M6.15,2.85 C5.85,2.55 5.4,2.55 5.1,2.85 C3.375,4.575 3.375,7.425 5.1,9.225 C5.25,9.375 5.475,9.45 5.625,9.45 C5.775,9.45 6,9.375 6.15,9.225 C6.45,8.925 6.45,8.475 6.15,8.175 C4.95,6.975 4.95,5.1 6.15,3.9 C6.45,3.6 6.45,3.075 6.15,2.85 L6.15,2.85 Z" id="Shape"></path>
            <path d="M3.975,1.725 C4.275,1.425 4.275,0.975 3.975,0.675 C3.675,0.375 3.225,0.375 2.925,0.675 C-6.8278716e-14,3.6 -6.8278716e-14,8.4 2.925,11.325 C3.075,11.475 3.3,11.55 3.45,11.55 C3.6,11.55 3.825,11.475 3.975,11.325 C4.275,11.025 4.275,10.575 3.975,10.275 C1.65,7.875 1.65,4.125 3.975,1.725 L3.975,1.725 Z" id="Shape"></path>
            <circle id="Oval" cx="9.75" cy="6" r="2.25"></circle>
        </g>
    </g>
</svg>