<?xml version="1.0" encoding="UTF-8" standalone="no"?>
<svg width="14px" height="14px" viewBox="0 0 14 14" version="1.1" xmlns="http://www.w3.org/2000/svg" xmlns:xlink="http://www.w3.org/1999/xlink">
    <!-- Generator: Sketch 39.1 (31720) - http://www.bohemiancoding.com/sketch -->
    <title>ui-24px-glyph-1_settings-gear-65</title>
    <desc>Created with Sketch.</desc>
    <defs></defs>
    <g id="Page-1" stroke="none" stroke-width="1" fill="none" fill-rule="evenodd">
        <g id="ui-24px-glyph-1_settings-gear-65" fill="#FFFFFF">
            <path d="M12.7272727,5.72727273 L11.9,5.72727273 C11.7727273,5.28181818 11.5818182,4.83636364 11.3272727,4.39090909 L11.9,3.81818182 C12.4090909,3.30909091 12.4090909,2.54545455 11.9,2.03636364 L11.9,2.03636364 C11.3909091,1.52727273 10.6272727,1.52727273 10.1181818,2.03636364 L9.54545455,2.60909091 C9.16363636,2.35454545 8.71818182,2.16363636 8.20909091,2.03636364 L8.20909091,1.27272727 C8.20909091,0.572727273 7.63636364,0 6.93636364,0 C6.23636364,0 5.66363636,0.572727273 5.66363636,1.27272727 L5.66363636,2.1 C5.28181818,2.22727273 4.83636364,2.35454545 4.39090909,2.60909091 L3.88181818,2.03636364 C3.37272727,1.52727273 2.60909091,1.52727273 2.1,2.03636364 L2.1,2.03636364 C1.59090909,2.54545455 1.59090909,3.30909091 2.1,3.81818182 L2.67272727,4.39090909 C2.35454545,4.83636364 2.22727273,5.28181818 2.1,5.72727273 L1.27272727,5.72727273 C0.572727273,5.72727273 0,6.3 0,7 C0,7.7 0.572727273,8.27272727 1.27272727,8.27272727 L2.1,8.27272727 C2.22727273,8.71818182 2.41818182,9.16363636 2.67272727,9.60909091 L2.1,10.1818182 C1.59090909,10.6909091 1.59090909,11.4545455 2.1,11.9636364 L2.1,11.9636364 C2.60909091,12.4727273 3.37272727,12.4727273 3.88181818,11.9636364 L4.45454545,11.3909091 C4.83636364,11.6454545 5.28181818,11.8363636 5.79090909,11.9636364 L5.79090909,12.7272727 C5.79090909,13.4272727 6.36363636,14 7.06363636,14 C7.76363636,14 8.33636364,13.4272727 8.33636364,12.7272727 L8.33636364,11.9 C8.78181818,11.7727273 9.22727273,11.5818182 9.67272727,11.3272727 L10.2454545,11.9 C10.7545455,12.4090909 11.5181818,12.4090909 12.0272727,11.9 L12.0272727,11.9 C12.5363636,11.3909091 12.5363636,10.6272727 12.0272727,10.1181818 L11.4545455,9.54545455 C11.7090909,9.16363636 11.9,8.71818182 12.0272727,8.20909091 L12.7272727,8.20909091 C13.4272727,8.20909091 14,7.63636364 14,6.93636364 C14,6.3 13.4272727,5.72727273 12.7272727,5.72727273 L12.7272727,5.72727273 Z M7,8.90909091 C5.91818182,8.90909091 5.09090909,8.08181818 5.09090909,7 C5.09090909,5.91818182 5.91818182,5.09090909 7,5.09090909 C8.08181818,5.09090909 8.90909091,5.91818182 8.90909091,7 C8.90909091,8.08181818 8.08181818,8.90909091 7,8.90909091 L7,8.90909091 Z" id="Shape"></path>
        </g>
    </g>
</svg>