<?xml version="1.0" encoding="UTF-8" standalone="no"?>
<svg width="14px" height="12px" viewBox="0 0 14 12" version="1.1" xmlns="http://www.w3.org/2000/svg" xmlns:xlink="http://www.w3.org/1999/xlink">
    <!-- Generator: Sketch 39.1 (31720) - http://www.bohemiancoding.com/sketch -->
    <title>business-24px-glyph_briefcase-24</title>
    <desc>Created with Sketch.</desc>
    <defs></defs>
    <g id="Page-1" stroke="none" stroke-width="1" fill="none" fill-rule="evenodd">
        <g id="business-24px-glyph_briefcase-24" fill="#FFFEFE">
            <g id="Group">
                <path d="M12,9.27272727 L7.63636364,9.27272727 L7.63636364,9.27272727 C7.63636364,9.6 7.41818182,9.81818182 7.09090909,9.81818182 L6,9.81818182 C5.67272727,9.81818182 5.45454545,9.6 5.45454545,9.27272727 L5.45454545,9.27272727 L1.09090909,9.27272727 C0.763636364,9.27272727 0.545454545,9.49090909 0.545454545,9.81818182 L0.545454545,11.4545455 C0.545454545,11.7818182 0.763636364,12 1.09090909,12 L12,12 C12.3272727,12 12.5454545,11.7818182 12.5454545,11.4545455 L12.5454545,9.81818182 C12.5454545,9.49090909 12.3272727,9.27272727 12,9.27272727 L12,9.27272727 Z" id="Shape"></path>
                <path d="M12.5454545,1.63636364 L9.27272727,1.63636364 L9.27272727,0.545454545 C9.27272727,0.218181818 9.05454545,0 8.72727273,0 L4.36363636,0 C4.03636364,0 3.81818182,0.218181818 3.81818182,0.545454545 L3.81818182,1.63636364 L0.545454545,1.63636364 C0.218181818,1.63636364 0,1.85454545 0,2.18181818 L0,7.63636364 C0,7.96363636 0.218181818,8.18181818 0.545454545,8.18181818 L5.45454545,8.18181818 L5.45454545,7.63636364 C5.45454545,7.30909091 5.67272727,7.09090909 6,7.09090909 L7.09090909,7.09090909 C7.41818182,7.09090909 7.63636364,7.30909091 7.63636364,7.63636364 L7.63636364,8.18181818 L12.5454545,8.18181818 C12.8727273,8.18181818 13.0909091,7.96363636 13.0909091,7.63636364 L13.0909091,2.18181818 C13.0909091,1.85454545 12.8727273,1.63636364 12.5454545,1.63636364 L12.5454545,1.63636364 Z M8.18181818,1.63636364 L4.90909091,1.63636364 L4.90909091,1.09090909 L8.18181818,1.09090909 L8.18181818,1.63636364 L8.18181818,1.63636364 Z" id="Shape"></path>
            </g>
        </g>
    </g>
</svg>