<?xml version="1.0" encoding="UTF-8" standalone="no"?>
<svg width="14px" height="14px" viewBox="0 0 14 14" version="1.1" xmlns="http://www.w3.org/2000/svg" xmlns:xlink="http://www.w3.org/1999/xlink">
    <!-- Generator: Sketch 39.1 (31720) - http://www.bohemiancoding.com/sketch -->
    <title>Group 165</title>
    <desc>Created with Sketch.</desc>
    <defs></defs>
    <g id="Page-1" stroke="none" stroke-width="1" fill="none" fill-rule="evenodd">
        <g id="Group-165" fill="#FFFFFF">
            <path d="M11.5792727,4.30881818 L9.64345455,2.373 L11.6849091,0.331545455 C11.2108182,0.120272727 10.6870909,0 10.1340909,0 C8.02518182,0 6.31590909,1.70927273 6.31590909,3.81818182 C6.31590909,4.22990909 6.38272727,4.62509091 6.503,4.99609091 L0.316909091,9.62245455 C-0.00763636364,9.86554545 -0.0451818182,10.3383636 0.237363636,10.6291818 L3.31736364,13.7963636 C3.60690909,14.0941818 4.09436364,14.0604545 4.34063636,13.7257273 L8.95745455,7.44927273 C9.32909091,7.56954545 9.72363636,7.63636364 10.1340909,7.63636364 C12.243,7.63636364 13.9522727,5.92709091 13.9522727,3.81818182 C13.9522727,3.26518182 13.832,2.74145455 13.6207273,2.26672727 L11.5792727,4.30881818 L11.5792727,4.30881818 Z" id="Shape"></path>
        </g>
    </g>
</svg>